<svg width="104" height="82" viewBox="0 0 104 82" fill="none" xmlns="http://www.w3.org/2000/svg">
<mask id="mask0_23_2" style="mask-type:luminance" maskUnits="userSpaceOnUse" x="11" y="10" width="87" height="62">
<path d="M11 10.3125H97.7865V71.3125H11V10.3125Z" fill="white"/>
</mask>
<g mask="url(#mask0_23_2)">
<path d="M15.5677 10.4636C14.9844 10.4532 14.4219 10.5574 13.8854 10.7761C13.3438 10.9896 12.8646 11.3074 12.4531 11.7136C12.0365 12.1199 11.7187 12.5938 11.4948 13.1303C11.2708 13.6667 11.1562 14.2292 11.1562 14.8074C11.1562 15.3907 11.2708 15.9532 11.4948 16.4896C11.7187 17.0261 12.0365 17.4949 12.4531 17.9063C12.8646 18.3126 13.3438 18.6251 13.8854 18.8438C14.4219 19.0626 14.9844 19.1667 15.5677 19.1563H93.8281C94.4063 19.1667 94.9688 19.0626 95.5104 18.8438C96.0521 18.6251 96.526 18.3126 96.9427 17.9063C97.3542 17.4949 97.6771 17.0261 97.901 16.4896C98.125 15.9532 98.2344 15.3907 98.2344 14.8074C98.2344 14.2292 98.125 13.6667 97.901 13.1303C97.6771 12.5938 97.3542 12.1199 96.9427 11.7136C96.526 11.3074 96.0521 10.9896 95.5104 10.7761C94.9688 10.5574 94.4063 10.4532 93.8281 10.4636H15.5677ZM15.5677 36.5469C14.9844 36.5417 14.4219 36.6459 13.8854 36.8594C13.3438 37.0782 12.8646 37.3907 12.4531 37.8021C12.0365 38.2084 11.7187 38.6824 11.4948 39.2188C11.2708 39.7553 11.1562 40.3126 11.1562 40.8959C11.1562 41.4792 11.2708 42.0365 11.4948 42.573C11.7187 43.1094 12.0365 43.5834 12.4531 43.9949C12.8646 44.4011 13.3438 44.7136 13.8854 44.9324C14.4219 45.1459 14.9844 45.2501 15.5677 45.2449H93.8281C94.4063 45.2501 94.9688 45.1459 95.5104 44.9324C96.0521 44.7136 96.526 44.4011 96.9427 43.9949C97.3542 43.5834 97.6771 43.1094 97.901 42.573C98.125 42.0365 98.2344 41.4792 98.2344 40.8959C98.2344 40.3126 98.125 39.7553 97.901 39.2188C97.6771 38.6824 97.3542 38.2084 96.9427 37.8021C96.526 37.3907 96.0521 37.0782 95.5104 36.8594C94.9688 36.6459 94.4063 36.5417 93.8281 36.5469H15.5677ZM15.5677 62.6355C14.9844 62.6251 14.4219 62.7292 13.8854 62.948C13.3438 63.1667 12.8646 63.4792 12.4531 63.8855C12.0365 64.2969 11.7187 64.7657 11.4948 65.3074C11.2708 65.8438 11.1562 66.4011 11.1562 66.9844C11.1562 67.5626 11.2708 68.1251 11.4948 68.6615C11.7187 69.198 12.0365 69.6719 12.4531 70.0782C12.8646 70.4896 13.3438 70.8021 13.8854 71.0157C14.4219 71.2344 14.9844 71.3386 15.5677 71.3334H93.8281C94.4063 71.3386 94.9688 71.2344 95.5104 71.0157C96.0521 70.8021 96.526 70.4896 96.9427 70.0782C97.3542 69.6719 97.6771 69.198 97.901 68.6615C98.125 68.1251 98.2344 67.5626 98.2344 66.9844C98.2344 66.4011 98.125 65.8438 97.901 65.3074C97.6771 64.7657 97.3542 64.2969 96.9427 63.8855C96.526 63.4792 96.0521 63.1667 95.5104 62.948C94.9688 62.7292 94.4063 62.6251 93.8281 62.6355H15.5677Z" fill="white"/>
</g>
</svg>
