<svg width="35" height="41" viewBox="0 0 35 41" fill="none" xmlns="http://www.w3.org/2000/svg">
<mask id="mask0_1_16" style="mask-type:luminance" maskUnits="userSpaceOnUse" x="0" y="0" width="36" height="41">
<path d="M0.00518799 0.833313H35.0052V40.8333H0.00518799V0.833313Z" fill="white"/>
</mask>
<g mask="url(#mask0_1_16)">
<path d="M33.6178 28.1927H27.4654V24.8437H29.6783C29.9669 24.8437 30.2353 24.6927 30.3872 24.4479L34.3267 18.1562C34.4938 17.8906 34.509 17.5521 34.3571 17.2708C34.2102 16.9896 33.9267 16.8177 33.6178 16.8177H27.4654V13.4687H29.6783C29.9669 13.4687 30.2353 13.3177 30.3922 13.0729L34.3267 6.77602C34.4938 6.5104 34.509 6.17185 34.3571 5.8906C34.2102 5.61456 33.9267 5.43748 33.6178 5.43748H27.4654V3.23956C27.4654 1.92185 26.4223 0.848938 25.1412 0.848938H9.37299C8.09189 0.848938 7.04877 1.92185 7.04877 3.23956V5.43748H0.896429C0.587546 5.43748 0.298917 5.61456 0.152071 5.8906C0.00522407 6.17185 0.0153527 6.5104 0.182453 6.77602L4.12198 13.0729C4.27895 13.3177 4.54733 13.4687 4.83089 13.4687H7.04877V16.8177H0.896429C0.587546 16.8177 0.298917 16.9896 0.152071 17.2708C0.00522407 17.5521 0.0153527 17.8906 0.182453 18.1562L4.12198 24.4479C4.27895 24.6927 4.54733 24.8437 4.83089 24.8437H7.04877V28.1927H0.896429C0.587546 28.1927 0.298917 28.3646 0.152071 28.6458C0.00522407 28.9219 0.0153527 29.2656 0.182453 29.5312L4.12198 35.8229C4.27895 36.0729 4.54733 36.2239 4.83089 36.2239H7.04877V38.4219C7.04877 39.7448 8.09189 40.8177 9.37299 40.8177H25.1412C26.4223 40.8177 27.4654 39.7448 27.4654 38.4219V36.2239H29.6783C29.9669 36.2239 30.2353 36.0729 30.3922 35.8229L34.3267 29.5312C34.4938 29.2656 34.509 28.9219 34.3571 28.6458C34.2102 28.3646 33.9267 28.1927 33.6178 28.1927ZM29.2175 23.1094H27.4654V18.5573H32.0683L29.2175 23.1094ZM29.2175 11.7344H27.4654V7.17706H32.0683L29.2175 11.7344ZM2.44084 7.17706H7.04877V11.7344H5.29168L2.44084 7.17706ZM2.44591 18.5573H7.04877V23.1094H5.29168L2.44591 18.5573ZM2.44084 29.9323H7.04877V34.4844H5.29168L2.44084 29.9323ZM25.7742 38.4219C25.7742 38.7864 25.4906 39.0781 25.1412 39.0781H9.37299C9.02866 39.0781 8.74003 38.776 8.74003 38.4219C8.74003 25.6041 8.74003 14.9635 8.74003 3.23956C8.74003 2.8854 9.02866 2.58331 9.37299 2.58331H25.1412C25.4906 2.58331 25.7742 2.88019 25.7742 3.23956C25.7742 10.4062 25.7742 28.7135 25.7742 35.3541V38.4219ZM29.2175 34.4844H27.4654V29.9323H32.0683L29.2175 34.4844Z" fill="white"/>
</g>
<path d="M17.75 5.13019C15.3646 5.13019 13.4271 7.06769 13.4271 9.45831C13.4271 11.8437 15.3646 13.7812 17.75 13.7812C20.1354 13.7812 22.0781 11.8437 22.0781 9.45831C22.0781 7.06769 20.1354 5.13019 17.75 5.13019Z" fill="white"/>
<path d="M17.75 16.5052C15.3646 16.5052 13.4271 18.4479 13.4271 20.8333C13.4271 23.2135 15.3646 25.1562 17.75 25.1562C20.1354 25.1562 22.0781 23.2135 22.0781 20.8333C22.0781 18.4479 20.1354 16.5052 17.75 16.5052Z" fill="white"/>
<path d="M17.75 27.8802C15.3646 27.8802 13.4271 29.8229 13.4271 32.2083C13.4271 34.5937 15.3646 36.5364 17.75 36.5364C20.1354 36.5364 22.0781 34.5937 22.0781 32.2083C22.0781 29.8229 20.1354 27.8802 17.75 27.8802Z" fill="white"/>
</svg>
