<?xml version="1.0" encoding="utf-8"?>
<svg version="1.1" xmlns:xlink="http://www.w3.org/1999/xlink" width="57px" height="47px" xmlns="http://www.w3.org/2000/svg">
  <g transform="matrix(1 0 0 1 -33 -24 )">
    <path d="M 48.806691449814124 26.851909586905688  C 48.83023543990087 26.900753442452583  48.84200743494424 26.974019225772928  48 27.07170693686672  L 48 44.655494933749026  C 48.84200743494424 45.29046505585866  48.618339529120206 45.839958430761236  48.17100371747212 46.30397505845674  C 47.723667905824044 46.76799168615225  47.19392812887237 47  46.581784386617095 47  L 33 47  L 33 32.932969602494154  L 24 32.932969602494154  L 24 47  L 10.4182156133829 47  C 9.806071871127635 47  9.276332094175961 46.76799168615225  8.82899628252788 46.30397505845674  C 8.381660470879803 45.839958430761236  8.157992565055762 45.29046505585866  9 44.655494933749026  L 9 27.07170693686672  C 8.157992565055762 27.04728500909327  8.163878562577448 27.0106521174331  8.175650557620818 26.961808261886205  C 8.18742255266419 26.91296440633931  8.193308550185874 26.876331514679137  8.193308550185874 26.851909586905688  L 28.5 9.48791893998441  L 48.806691449814124 26.851909586905688  Z M 56.96468401486989 23.68316445830086  C 56.98822800495663 24.0128604832424  56.90582403965304 24.29981813458041  56.71747211895911 24.54403741231489  L 54.5278810408922 27.25487139516758  C 54.33952912019827 27.474668745128607  54.092317224287484 27.60898934788257  53.786245353159856 27.657833203429462  L 53.680297397769515 27.657833203429462  C 53.37422552664189 27.657833203429462  53.127013630731106 27.572356456222394  52.938661710037174 27.40140296180826  L 28.5 6.264224473889322  L 4.061338289962825 27.40140296180826  C 3.778810408921933 27.596778383995836  3.496282527881041 27.682255131202908  3.2137546468401488 27.657833203429462  C 2.907682775712516 27.60898934788257  2.660470879801735 27.474668745128607  2.4721189591078065 27.25487139516758  L 0.2825278810408922 24.54403741231489  C 0.09417596034696411 24.29981813458041  0.011771995043370592 24.0128604832424  0.03531598513011153 23.68316445830086  C 0.05885997521685271 23.353468433359314  0.18835192069392823 23.09093270979475  0.42379182156133827 22.89555728760717  L 25.815985130111525 0.9524551831644597  C 26.569392812887237 0.31748506105481467  27.464064436183396 0  28.5 0  C 29.535935563816608 0  30.43060718711277 0.31748506105481467  31.184014869888475 0.9524551831644597  L 39.801115241635685 8.425565081839437  L 39.801115241635685 1.2821512081059994  C 39.801115241635685 0.9402442192777294  39.90706319702602 0.6593920498830846  40.11895910780669 0.4395946999220599  C 40.33085501858736 0.21979734996102995  40.60161090458488 0.10989867498051498  40.93122676579926 0.10989867498051498  L 47.71189591078067 0.10989867498051498  C 48.04151177199505 0.10989867498051498  48.312267657992564 0.21979734996102995  48.52416356877323 0.4395946999220599  C 48.7360594795539 0.6593920498830846  48.84200743494424 0.9402442192777294  48 1.2821512081059994  L 48 16.228371005455962  L 56.57620817843866 22.89555728760717  C 56.811648079306075 23.09093270979475  56.94114002478315 23.353468433359314  56.96468401486989 23.68316445830086  Z " fill-rule="nonzero" fill="#f7f5f5" stroke="none" transform="matrix(1 0 0 1 33 24 )" />
  </g>
</svg>