<?xml version="1.0" encoding="utf-8"?>
<svg version="1.1" xmlns:xlink="http://www.w3.org/1999/xlink" width="40px" height="41px" xmlns="http://www.w3.org/2000/svg">
  <g transform="matrix(1 0 0 1 -1823 -26 )">
    <path d="M 38.13031161473088 0  C 38.92351274787536 0  39.480642115203025 0.378551136363638  39.801699716713884 1.1356534090909096  C 40.12275731822474 1.931581439393935  39.99055712936733 2.6110321969696937  39.405099150141645 3.1740056818181808  L 25 17.529829545454547  L 25 39.13636363636364  C 25.43909348441926 39.95170454545455  25.070821529745043 40.52438446969697  24.334277620396602 40.85440340909091  C 24.088762983947124 40.951467803030305  23.852691218130314 41  23.626062322946176 41  C 23.11614730878187 41  22.69121813031162 40.815577651515156  22.35127478753541 40.44673295454545  L 15.099150141643058 32.9921875  C 14.740321057601511 32.623342803030305  14.560906515580736 32.186553030303024  15 31.68181818181818  L 15 17.529829545454547  L 0.594900849858357 3.1740056818181808  C 0.009442870632672323 2.6110321969696937  -0.12275731822474033 1.931581439393935  0.19830028328611898 1.1356534090909096  C 0.5193578847969783 0.378551136363638  1.0764872521246458 0  1.8696883852691217 0  L 38.13031161473088 0  Z " fill-rule="nonzero" fill="#f7f5f5" stroke="none" transform="matrix(1 0 0 1 1823 26 )" />
  </g>
</svg>